<svg width="669" height="395" viewBox="0 0 669 395" fill="none" xmlns="http://www.w3.org/2000/svg">
    <g filter="url(#filter0_d_1_47)">
        <path d="M43 77.5L96.25 167.75L149.5 77.5L161.75 184H192.25L168.25 0.249996L96.25 119L24.5 0.249996L0.500001 184H31L43 77.5ZM268.699 186.5C282.033 186.5 293.449 183.917 302.949 178.75C312.449 173.583 320.199 165.833 326.199 155.5L302.949 146C299.283 152.167 294.699 156.75 289.199 159.75C283.699 162.75 277.283 164.25 269.949 164.25C262.949 164.25 256.949 162.75 251.949 159.75C247.116 156.75 243.449 152.417 240.949 146.75C238.449 140.917 237.199 133.833 237.199 125.5C237.366 117.167 238.699 110.167 241.199 104.5C243.699 98.8333 247.366 94.5 252.199 91.5C257.033 88.5 262.866 87 269.699 87C275.366 87 280.283 88.25 284.449 90.75C288.783 93.25 292.116 96.75 294.449 101.25C296.949 105.75 298.199 111.083 298.199 117.25C298.199 118.417 297.866 119.917 297.199 121.75C296.699 123.417 296.199 124.75 295.699 125.75L303.949 114.25H225.949V132.75H326.949C327.116 132.083 327.199 131 327.199 129.5C327.366 128 327.449 126.583 327.449 125.25C327.449 112.917 325.116 102.417 320.449 93.75C315.949 84.9167 309.449 78.1667 300.949 73.5C292.449 68.8333 282.116 66.5 269.949 66.5C257.783 66.5 247.199 69 238.199 74C229.199 78.8333 222.199 85.75 217.199 94.75C212.366 103.75 209.949 114.333 209.949 126.5C209.949 138.5 212.366 149 217.199 158C222.033 167 228.866 174 237.699 179C246.699 184 257.033 186.5 268.699 186.5ZM517.721 111C517.721 101.5 516.387 93.4167 513.721 86.75C511.054 80.0833 506.971 75.0833 501.471 71.75C496.137 68.25 489.387 66.5 481.221 66.5C473.387 66.5 466.387 68.25 460.221 71.75C454.221 75.25 449.221 80.3333 445.221 87C442.721 80.3333 438.637 75.25 432.971 71.75C427.471 68.25 420.471 66.5 411.971 66.5C404.637 66.5 398.221 68.1667 392.721 71.5C387.387 74.6667 383.054 79.4167 379.721 85.75V69H353.221V184H379.721V114C379.721 108.5 380.637 103.833 382.471 100C384.304 96.1667 386.887 93.25 390.221 91.25C393.721 89.25 397.804 88.25 402.471 88.25C409.137 88.25 413.971 90.4167 416.971 94.75C420.137 98.9167 421.721 105.333 421.721 114V184H448.721V114C448.721 108.5 449.637 103.833 451.471 100C453.471 96.1667 456.137 93.25 459.471 91.25C462.971 89.25 466.971 88.25 471.471 88.25C478.137 88.25 482.971 90.4167 485.971 94.75C489.137 98.9167 490.721 105.333 490.721 114V184H517.721V111ZM602.195 186.5C615.529 186.5 626.945 183.917 636.445 178.75C645.945 173.583 653.695 165.833 659.695 155.5L636.445 146C632.779 152.167 628.195 156.75 622.695 159.75C617.195 162.75 610.779 164.25 603.445 164.25C596.445 164.25 590.445 162.75 585.445 159.75C580.612 156.75 576.945 152.417 574.445 146.75C571.945 140.917 570.695 133.833 570.695 125.5C570.862 117.167 572.195 110.167 574.695 104.5C577.195 98.8333 580.862 94.5 585.695 91.5C590.529 88.5 596.362 87 603.195 87C608.862 87 613.779 88.25 617.945 90.75C622.279 93.25 625.612 96.75 627.945 101.25C630.445 105.75 631.695 111.083 631.695 117.25C631.695 118.417 631.362 119.917 630.695 121.75C630.195 123.417 629.695 124.75 629.195 125.75L637.445 114.25H559.445V132.75H660.445C660.612 132.083 660.695 131 660.695 129.5C660.862 128 660.945 126.583 660.945 125.25C660.945 112.917 658.612 102.417 653.945 93.75C649.445 84.9167 642.945 78.1667 634.445 73.5C625.945 68.8333 615.612 66.5 603.445 66.5C591.279 66.5 580.695 69 571.695 74C562.695 78.8333 555.695 85.75 550.695 94.75C545.862 103.75 543.445 114.333 543.445 126.5C543.445 138.5 545.862 149 550.695 158C555.529 167 562.362 174 571.195 179C580.195 184 590.529 186.5 602.195 186.5ZM10.5 209V384H109.5V357.5H40V209H10.5ZM119.861 326.5C119.861 338.167 122.528 348.583 127.861 357.75C133.361 366.75 140.778 373.833 150.111 379C159.445 384 170.028 386.5 181.861 386.5C193.695 386.5 204.195 384 213.361 379C222.695 373.833 230.111 366.75 235.611 357.75C241.111 348.583 243.861 338.167 243.861 326.5C243.861 314.667 241.111 304.25 235.611 295.25C230.111 286.25 222.695 279.25 213.361 274.25C204.195 269.083 193.695 266.5 181.861 266.5C170.028 266.5 159.445 269.083 150.111 274.25C140.778 279.25 133.361 286.25 127.861 295.25C122.528 304.25 119.861 314.667 119.861 326.5ZM147.611 326.5C147.611 319.333 149.111 313 152.111 307.5C155.111 302 159.195 297.75 164.361 294.75C169.528 291.75 175.361 290.25 181.861 290.25C188.195 290.25 193.945 291.75 199.111 294.75C204.445 297.75 208.611 302 211.611 307.5C214.611 313 216.111 319.333 216.111 326.5C216.111 333.667 214.611 340 211.611 345.5C208.611 350.833 204.445 355.083 199.111 358.25C193.945 361.25 188.195 362.75 181.861 362.75C175.361 362.75 169.528 361.25 164.361 358.25C159.195 355.083 155.111 350.833 152.111 345.5C149.111 340 147.611 333.667 147.611 326.5ZM296.23 269H269.48V384H296.23V269ZM330.48 297.75L343.48 275C340.98 271.833 337.897 269.667 334.23 268.5C330.564 267.167 326.647 266.5 322.48 266.5C316.647 266.5 310.98 268.583 305.48 272.75C300.147 276.917 295.73 282.583 292.23 289.75C288.897 296.75 287.23 304.833 287.23 314L296.23 319.25C296.23 313.75 296.814 309 297.98 305C299.314 300.833 301.397 297.583 304.23 295.25C307.064 292.917 310.73 291.75 315.23 291.75C318.564 291.75 321.314 292.25 323.48 293.25C325.647 294.25 327.98 295.75 330.48 297.75ZM448.51 189V384H475.76V189H448.51ZM353.26 326.5C353.26 339 355.843 349.75 361.01 358.75C366.176 367.75 373.01 374.667 381.51 379.5C390.176 384.167 399.426 386.5 409.26 386.5C418.926 386.5 427.343 384.083 434.51 379.25C441.843 374.417 447.593 367.5 451.76 358.5C456.093 349.5 458.26 338.833 458.26 326.5C458.26 314 456.093 303.333 451.76 294.5C447.593 285.5 441.843 278.583 434.51 273.75C427.343 268.917 418.926 266.5 409.26 266.5C399.426 266.5 390.176 268.917 381.51 273.75C373.01 278.417 366.176 285.25 361.01 294.25C355.843 303.083 353.26 313.833 353.26 326.5ZM381.26 326.5C381.26 318.833 382.843 312.25 386.01 306.75C389.176 301.25 393.343 297.083 398.51 294.25C403.843 291.417 409.593 290 415.76 290C420.926 290 426.01 291.417 431.01 294.25C436.176 297.083 440.343 301.25 443.51 306.75C446.843 312.083 448.51 318.667 448.51 326.5C448.51 334.333 446.843 341 443.51 346.5C440.343 351.833 436.176 355.917 431.01 358.75C426.01 361.583 420.926 363 415.76 363C409.593 363 403.843 361.583 398.51 358.75C393.343 355.917 389.176 351.75 386.01 346.25C382.843 340.75 381.26 334.167 381.26 326.5Z" fill="#1B542B"/>
    </g>
    <defs>
        <filter id="filter0_d_1_47" x="0.5" y="0.25" width="668.445" height="394.25" filterUnits="userSpaceOnUse" color-interpolation-filters="sRGB">
            <feFlood flood-opacity="0" result="BackgroundImageFix"/>
            <feColorMatrix in="SourceAlpha" type="matrix" values="0 0 0 0 0 0 0 0 0 0 0 0 0 0 0 0 0 0 127 0" result="hardAlpha"/>
            <feOffset dx="4" dy="4"/>
            <feGaussianBlur stdDeviation="2"/>
            <feComposite in2="hardAlpha" operator="out"/>
            <feColorMatrix type="matrix" values="0 0 0 0 0 0 0 0 0 0 0 0 0 0 0 0 0 0 0.25 0"/>
            <feBlend mode="normal" in2="BackgroundImageFix" result="effect1_dropShadow_1_47"/>
            <feBlend mode="normal" in="SourceGraphic" in2="effect1_dropShadow_1_47" result="shape"/>
        </filter>
    </defs>
</svg>
